<svg width="320" height="63" viewBox="0 0 320 63" fill="none" xmlns="http://www.w3.org/2000/svg">
<g clip-path="url(#clip0_2123_16908)">
<path fill-rule="evenodd" clip-rule="evenodd" d="M221.992 15.5888V40.657C221.992 41.6898 222.384 42.451 223.165 42.9359C223.946 43.4208 225.143 43.6632 226.758 43.6632H231.966L241.28 43.6584L239.559 47.0428H235.767H233.76L225.764 47.0816C222.157 47.0816 219.596 46.5192 218.079 45.3943C216.561 44.2693 215.8 42.8583 215.8 41.1564V15.5888H221.992Z" fill="#502D7F"/>
<path fill-rule="evenodd" clip-rule="evenodd" d="M242.778 47.0526L258.576 16.6992C258.716 16.3646 259.002 16.0979 259.429 15.8991C259.856 15.7003 260.355 15.6034 260.922 15.6034H265.49C266.057 15.6034 266.557 15.7003 266.983 15.8991C267.41 16.0979 267.696 16.3646 267.837 16.6992L283.634 47.0526H277.156L272.298 37.2095H254.11L249.251 47.0526H242.773M261.984 21.257L255.817 33.7475H270.581L264.414 21.257L263.807 19.9576L263.201 18.7017H263.187L262.619 19.9576C262.43 20.3988 262.217 20.8303 261.979 21.257H261.984Z" fill="#502D7F"/>
<path fill-rule="evenodd" clip-rule="evenodd" d="M286.199 15.6034L290.932 15.3512L295.843 15.2591L302.142 15.2349C306.176 15.2349 309.376 15.4725 311.747 15.9428C314.118 16.4131 315.84 17.2423 316.907 18.4254C317.973 19.6085 318.507 21.2813 318.507 23.439C318.507 25.5967 317.857 27.4053 316.553 28.5884C315.248 29.7715 313.124 30.4552 310.181 30.6394V30.8237C313.832 31.037 316.383 31.8565 317.833 33.2869C319.278 34.7173 320.005 36.6907 320.005 39.2121C320.005 41.3698 319.481 43.0426 318.439 44.2257C317.396 45.4088 315.723 46.238 313.42 46.7083C311.122 47.1786 308.096 47.4162 304.348 47.4162L297.124 47.392L291.538 47.2804L286.199 47.0526V15.6034ZM292.318 18.6726V29.2333H302.85C305.221 29.2042 307.107 29.0442 308.508 28.7533C309.91 28.4623 310.913 27.9338 311.534 27.158C312.15 26.3822 312.46 25.2961 312.46 23.8996C312.46 22.5032 312.13 21.3783 311.466 20.617C310.802 19.8557 309.701 19.3418 308.159 19.0654C306.617 18.7939 304.518 18.6533 301.861 18.6533H295.601L292.328 18.6678L292.318 18.6726ZM302.923 32.288H292.318V43.9445L293.138 43.959L303.349 44.0027C305.958 44.0027 308.009 43.8572 309.502 43.5711C310.996 43.2802 312.063 42.742 312.703 41.9516C313.343 41.1613 313.663 40.0218 313.663 38.5332C313.663 36.8944 313.333 35.6337 312.669 34.7512C312.004 33.8687 310.889 33.2481 309.323 32.8844C307.757 32.5208 305.623 32.322 302.918 32.2929L302.923 32.288Z" fill="#502D7F"/>
<path fill-rule="evenodd" clip-rule="evenodd" d="M173.717 15.6325H180.403L190.721 28.8939C191.148 29.4709 193.194 32.0795 193.194 32.0795L195.628 28.9375L205.947 15.6276H212.565L196.268 36.0555V47.0768H190.009V35.9683L173.712 15.6276" fill="#502D7F"/>
<path fill-rule="evenodd" clip-rule="evenodd" d="M118.989 15.0118C122.548 15.0118 125.573 15.2833 128.061 15.8313C130.553 16.3792 132.546 17.281 134.039 18.5417C135.533 19.8024 136.624 21.4801 137.312 23.5796C138.001 25.6743 138.345 28.2587 138.345 31.3279C138.345 34.3972 138.001 36.9816 137.312 39.0763C136.624 41.171 135.533 42.8535 134.039 44.1142C132.546 45.3749 130.553 46.2767 128.061 46.8246C125.568 47.3726 122.548 47.6441 118.989 47.6441C115.43 47.6441 112.409 47.3677 109.917 46.8246C107.424 46.2767 105.422 45.3749 103.904 44.1142C102.386 42.8535 101.281 41.1758 100.597 39.0763C99.9087 36.9816 99.5645 34.3972 99.5645 31.3279C99.5645 28.2587 99.9087 25.6743 100.597 23.5796C101.286 21.4849 102.386 19.8024 103.904 18.5417C105.422 17.281 107.424 16.3792 109.917 15.8313C112.409 15.2833 115.43 15.0118 118.989 15.0118ZM118.989 18.6145C115.764 18.6145 113.214 19.0121 111.337 19.7976C109.466 20.5879 108.137 21.9019 107.352 23.7396C106.571 25.5773 106.178 28.1084 106.178 31.3279C106.178 34.5475 106.571 37.0398 107.352 38.892C108.132 40.7443 109.461 42.068 111.337 42.8583C113.209 43.6487 115.759 44.0414 118.989 44.0414C122.218 44.0414 124.764 43.6487 126.64 42.8583C128.517 42.068 129.84 40.7443 130.626 38.892C131.406 37.0398 131.799 34.5184 131.799 31.3279C131.799 28.1375 131.406 25.5773 130.626 23.7396C129.845 21.9019 128.517 20.5879 126.64 19.7976C124.768 19.0072 122.218 18.6145 118.989 18.6145Z" fill="#502D7F"/>
<path fill-rule="evenodd" clip-rule="evenodd" d="M156.461 14.8761L163.646 15.104C166.085 15.2252 168.529 15.4482 170.968 15.7779L169.46 18.6775L163.86 18.5466L156.742 18.4787C154.987 18.4787 153.479 18.5175 152.223 18.5951C150.967 18.6727 149.934 18.8521 149.129 19.143C148.324 19.4339 147.742 19.9043 147.389 20.554C147.035 21.2086 146.855 22.1104 146.855 23.2645C146.855 24.9955 147.34 26.2028 148.315 26.8865C149.289 27.5702 150.865 28.0793 153.047 28.4139L163.011 30.0091C166.808 30.5861 169.402 31.5947 170.803 33.0396C172.205 34.4845 172.903 36.4192 172.903 38.8533C172.903 40.6764 172.583 42.1504 171.943 43.2754C171.303 44.4003 170.318 45.2585 168.99 45.8501C167.661 46.4416 165.954 46.8538 163.865 47.0817C161.78 47.3095 159.312 47.4259 156.465 47.4259L150.167 47.2901C148.169 47.2223 145.842 47.1738 143.374 47.0041C142.089 46.9168 139.165 46.6647 138.045 46.4804L139.533 43.5711L141.095 43.6002V43.6099L148.426 43.7602L152.839 43.8281H156.679C159.195 43.8281 161.174 43.7069 162.623 43.4645C164.068 43.222 165.091 42.7371 165.683 42.005C166.275 41.2728 166.57 40.1964 166.57 38.7708C166.57 37.5538 166.357 36.6131 165.93 35.944C165.504 35.2749 164.83 34.7658 163.903 34.4166C162.977 34.0675 161.804 33.7863 160.383 33.573L150.206 31.9341C146.647 31.3571 144.145 30.3534 142.7 28.9278C141.255 27.4974 140.527 25.587 140.527 23.182C140.527 21.3589 140.848 19.8946 141.488 18.7842C142.128 17.6738 143.102 16.8398 144.407 16.2774C145.711 15.7149 147.359 15.3416 149.352 15.1621C151.345 14.9779 153.716 14.8906 156.47 14.8906L156.461 14.8761Z" fill="#502D7F"/>
<path fill-rule="evenodd" clip-rule="evenodd" d="M85.1976 15.0603C85.1976 15.0603 93.489 15.3561 94.7545 15.4628L99.6033 15.7876L98.0129 18.9151L93.9787 18.7987L90.0997 18.6629L85.1879 18.6193C82.0119 18.6193 79.4954 19.0169 77.6432 19.8024C75.791 20.5879 74.4769 21.9165 73.6963 23.7687C72.9156 25.6209 72.5229 28.1423 72.5229 31.3328C72.5229 34.5233 72.9156 37.0447 73.6963 38.8969C74.4769 40.7491 75.7958 42.0729 77.6432 42.8632C79.4954 43.6536 82.0071 44.0463 85.1879 44.0463L92.8393 43.9299L98.0371 43.6002L99.5694 46.6016C97.7414 46.8877 95.06 47.2077 93.266 47.3483C91.1082 47.518 88.4172 47.6005 85.1879 47.6005C80.4894 47.6005 76.7316 47.0768 73.9096 46.0295C71.0876 44.9821 69.0463 43.2705 67.7905 40.9043C66.5346 38.5332 65.9043 35.3427 65.9043 31.3328C65.9043 27.3229 66.5346 24.1324 67.7905 21.7613C69.0463 19.3903 71.0876 17.6835 73.9096 16.6362C76.7316 15.5888 80.4943 15.0652 85.1879 15.0652" fill="#502D7F"/>
<path d="M50.5391 6.93862L50.5197 20.8934C50.4761 23.9481 48.8857 26.4307 46.5825 27.8223L41.2683 31.2795L28.6808 23.0996C26.2952 21.6595 24.6709 18.8278 24.6709 15.5646C24.6709 12.3014 26.2322 9.5812 28.5451 8.11687L38.6402 1.55647V1.56617C41.9907 -0.863068 46.5486 -0.431527 49.0021 2.61836C50.0155 3.87904 50.51 5.39671 50.5294 6.93862H50.5391Z" fill="#FF0230"/>
<path d="M28.2684 54.253C26.1155 52.745 24.6754 50.0637 24.6754 46.9992C24.6754 43.736 26.2998 40.9043 28.6854 39.4642L41.2728 31.2795L28.6854 23.0996C26.2998 21.6595 24.6754 18.8278 24.6754 15.5646C24.6754 12.602 26.0186 9.99334 28.055 8.46112L3.70932 24.2778C3.70932 24.2778 3.70447 24.2778 3.69962 24.2827L3.68507 24.2924C1.48858 25.6452 0 28.2732 0 31.2892C0 34.3051 1.45948 36.875 3.62204 38.2423L28.2684 54.2482V54.253Z" fill="#BB0035"/>
<path d="M50.5391 55.6203L50.5197 41.6656C50.4761 38.6108 48.8324 36.1186 46.5825 34.7367L41.2683 31.2795L28.6808 39.4642C26.2952 40.9043 24.6709 43.736 24.6709 46.9992C24.6709 50.2624 26.2322 52.9826 28.5451 54.4469L38.6402 61.0073V60.9976C41.9907 63.4269 46.5486 62.9953 49.0021 59.9455C50.0155 58.6848 50.51 57.1671 50.5294 55.6252H50.5391V55.6203Z" fill="#A260E4"/>
</g>
<defs>
<clipPath id="clip0_2123_16908">
<rect width="320" height="62.559" fill="white"/>
</clipPath>
</defs>
</svg>
