<svg version="1.1" id="Layer_1" xmlns="http://www.w3.org/2000/svg" x="0" y="0" width="147" height="37" viewBox="0 0 147 37" xml:space="preserve"><style>.st1{fill:url(#SVGID_00000034808348588466426280000014165208338569999761_)}.st2{fill:url(#SVGID_00000036938127967926434010000001804211650109175217_)}.st3{fill:url(#SVGID_00000078745867935239761380000017163691094588626873_)}.st4{fill:url(#SVGID_00000150079504015966642190000009188707068022855067_)}</style><linearGradient id="SVGID_1_" gradientUnits="userSpaceOnUse" x1="23.9349" y1="18.5" x2="28.1772" y2="18.5"><stop offset="1.1e-7" stop-color="#336789"/><stop offset="1" stop-color="#526d85"/></linearGradient><path d="M22.8 6.3v24.4c3.9-2.7 6.4-7.2 6.4-12.2S26.7 9 22.8 6.3z" fill="url(#SVGID_1_)"/><linearGradient id="SVGID_00000176748967310258999970000009298831736021706941_" gradientUnits="userSpaceOnUse" x1="1.043" y1="18.5" x2="50.9977" y2="18.5"><stop offset="0" stop-color="#3fb8e3"/><stop offset=".4332" stop-color="#70a3bd"/></linearGradient><path d="M22.8 30.7V6.3c-2.4-1.7-5.4-2.7-8.6-2.7H0v29.8h14.3c3.2 0 6.1-1 8.5-2.7.1 0 .1 0 0 0z" fill="url(#SVGID_00000176748967310258999970000009298831736021706941_)"/><linearGradient id="SVGID_00000085970680516639908290000016478960018354936465_" gradientUnits="userSpaceOnUse" x1="4.9989" y1="18.5" x2="68.8289" y2="18.5"><stop offset="0" stop-color="#3fb8e3"/><stop offset="1" stop-color="#f06b58"/></linearGradient><path d="M22.8 3.6v2.8c3.8 2.7 6.3 7.1 6.3 12.1s-2.5 9.4-6.3 12.1v2.8H52V3.6H22.8zm20 15.7-6.4 4.3c-.7.4-1.6 0-1.6-.8v-8.5c0-.8.9-1.3 1.6-.8l6.4 4.3c.5.3.5 1.1 0 1.5z" fill="url(#SVGID_00000085970680516639908290000016478960018354936465_)"/><linearGradient id="SVGID_00000031177199267539739090000013113250350413970861_" gradientUnits="userSpaceOnUse" x1="47.7696" y1="18.5" x2="50.4986" y2="18.5"><stop offset="0" stop-color="#7e4649"/><stop offset="1" stop-color="#943f3c"/></linearGradient><path d="M52.1 6.3C48.4 9 46 13.3 46 18.2v.6c0 4.9 2.4 9.2 6.1 11.8V6.3z" fill="url(#SVGID_00000031177199267539739090000013113250350413970861_)"/><linearGradient id="SVGID_00000047048648844336236980000011540168142389162403_" gradientUnits="userSpaceOnUse" x1="18.4824" y1="18.4999" x2="69.0465" y2="18.4999"><stop offset="0" stop-color="#3fb8e3"/><stop offset="1" stop-color="#f06b58"/></linearGradient><path d="M60.6 3.6c-3.2 0-6.1 1-8.5 2.8v24.3c2.4 1.7 5.3 2.8 8.5 2.8 8.1 0 14.6-6.5 14.6-14.6v-.6c0-8.2-6.5-14.7-14.6-14.7z" fill="url(#SVGID_00000047048648844336236980000011540168142389162403_)"/><path d="M83.8 24.2V13.1h4c.9 0 1.7.1 2.4.4.7.3 1.3.7 1.7 1.2.4.5.8 1.1 1 1.8.2.7.3 1.4.3 2.2 0 .8-.1 1.6-.4 2.3s-.6 1.3-1.1 1.8c-.5.5-1.1.9-1.7 1.1s-1.4.4-2.3.4l-3.9-.1zm7.3-5.6c0-.5-.1-1-.2-1.5s-.4-.8-.6-1.2c-.3-.3-.6-.6-1-.8-.5 0-.9-.1-1.5-.1h-1.9v7.3h1.9c.5 0 1-.1 1.4-.3.4-.2.8-.4 1-.8.2-.4.5-.7.6-1.2.1-.5.3-.8.3-1.4zm13.6 3.7v1.9H97V13.1h7.6V15h-5.4v2.7h4.6v1.8h-4.7v2.9c0-.1 5.6-.1 5.6-.1zm8.2 2c-.8 0-1.6-.2-2.2-.5-.6-.3-1.2-.7-1.7-1.3-.5-.6-.8-1.1-1.1-1.8s-.4-1.4-.4-2.1.1-1.5.4-2.1c.3-.7.7-1.3 1.1-1.8.4-.5 1.1-.9 1.7-1.2.7-.3 1.4-.5 2.2-.5.8 0 1.5.2 2.2.5.7.3 1.2.8 1.7 1.3s.8 1.1 1.1 1.8c.3.7.4 1.4.4 2.1s-.1 1.5-.4 2.1-.6 1.3-1.1 1.8c-.5.5-1.1.9-1.7 1.2-.6.3-1.5.5-2.2.5zm-3.3-5.7c0 .5.1.9.2 1.4.1.4.4.8.6 1.2.3.3.6.6 1 .8.4.2.9.3 1.4.3.5 0 1-.1 1.4-.3.4-.2.7-.5 1-.9.3-.4.5-.8.6-1.2.1-.4.2-.9.2-1.4 0-.5-.1-.9-.2-1.4l-.6-1.2c-.3-.3-.6-.6-1-.8-.4-.2-.9-.3-1.4-.3-.5 0-1 .1-1.4.3-.4.2-.7.5-1 .8-.3.4-.5.7-.6 1.2-.1.5-.2 1.1-.2 1.5zm17.4-5.5 3 8.4 3-8.4h2.3L131 24.2h-1.8l-4.4-11.1h2.2zm11.4 11.1V13.1h4.9c.5 0 1 .1 1.4.3.4.2.8.5 1.1.8.3.4.6.7.7 1.2.2.4.3.9.3 1.3 0 .7-.2 1.4-.5 2-.3.6-.8 1-1.5 1.3l2.5 4.2h-2.4l-2.3-3.7h-2.1v3.7h-2.1zm2.1-5.6h2.7c.2 0 .4 0 .6-.1.2-.1.3-.2.4-.4l.3-.6c.1-.2.1-.5.1-.7 0-.3 0-.5-.1-.7l-.3-.6c-.1-.2-.3-.3-.5-.4s-.4-.1-.6-.1h-2.6v3.6z"/></svg>